<?xml version="1.0" encoding="UTF-8" standalone="no"?>
<!DOCTYPE svg PUBLIC "-//W3C//DTD SVG 1.1//EN" "http://www.w3.org/Graphics/SVG/1.1/DTD/svg11.dtd">
<!-- 由 Microsoft Visio, SVG Export 生成 qmar.svg 页-1 -->
<svg xmlns="http://www.w3.org/2000/svg" xmlns:xlink="http://www.w3.org/1999/xlink" xmlns:ev="http://www.w3.org/2001/xml-events"
		xmlns:v="http://schemas.microsoft.com/visio/2003/SVGExtensions/" width="3.76156in" height="1.87336in"
		viewBox="0 0 270.832 134.882" xml:space="preserve" color-interpolation-filters="sRGB" class="st9">
	<v:documentProperties v:langID="2052" v:metric="true" v:viewMarkup="false"/>

	<style type="text/css">
	<![CDATA[
		.st1 {stroke:url(#grad0-3);stroke-width:7}
		.st2 {fill:#ffffff;stroke:#000000;stroke-width:0.25}
		.st3 {marker-end:url(#mrkr5-22);marker-start:url(#mrkr5-20);stroke:#5b9bd5;stroke-linecap:round;stroke-linejoin:round;stroke-width:0.75}
		.st4 {fill:#5b9bd5;fill-opacity:1;stroke:#5b9bd5;stroke-opacity:1;stroke-width:0.34246575342466}
		.st5 {fill:none;stroke:url(#grad1-69);stroke-width:10}
		.st6 {fill:none;stroke:none;stroke-width:0.25}
		.st7 {fill:#7f7f7f;font-family:Arial;font-size:6.66666em;font-style:italic;font-weight:bold}
		.st8 {font-size:1em;text-decoration:underline}
		.st9 {fill:none;fill-rule:evenodd;font-size:12px;overflow:visible;stroke-linecap:square;stroke-miterlimit:3}
	]]>
	</style>

	<defs id="Patterns_And_Gradients">
		<linearGradient id="grad0-3" x1="0" y1="0" x2="1" y2="0" gradientTransform="rotate(90 0.5 0.5)">
			<stop offset="0" stop-color="#d8d8d8" stop-opacity="1"/>
			<stop offset="0.99" stop-color="#7f7f7f" stop-opacity="1"/>
			<stop offset="1" stop-color="#ff66ff" stop-opacity="1"/>
			<stop offset="1" stop-color="#7f7f7f" stop-opacity="1"/>
		</linearGradient>
		<radialGradient id="grad1-69" cx="1" cy="1" r="1.4">
			<stop offset="0.11" stop-color="#00b050" stop-opacity="1"/>
			<stop offset="0.83" stop-color="#b5d2ec" stop-opacity="1"/>
			<stop offset="1" stop-color="#0070c0" stop-opacity="1"/>
		</radialGradient>
	</defs>
	<defs id="Markers">
		<g id="lend5">
			<path d="M 2 1 L 0 0 L 1.98117 -0.993387 C 1.67173 -0.364515 1.67301 0.372641 1.98465 1.00043 " style="stroke:none"/>
		</g>
		<marker id="mrkr5-20" class="st4" v:arrowType="5" v:arrowSize="0" v:setback="4.63" refX="4.63" orient="auto"
				markerUnits="strokeWidth" overflow="visible">
			<use xlink:href="#lend5" transform="scale(2.92) "/>
		</marker>
		<marker id="mrkr5-22" class="st4" v:arrowType="5" v:arrowSize="0" v:setback="5.11" refX="-5.11" orient="auto"
				markerUnits="strokeWidth" overflow="visible">
			<use xlink:href="#lend5" transform="scale(-2.92,-2.92) "/>
		</marker>
	</defs>
	<g v:mID="0" v:index="1" v:groupContext="foregroundPage">
		<title>页-1</title>
		<v:pageProperties v:drawingScale="0.0393701" v:pageScale="0.0393701" v:drawingUnits="24" v:shadowOffsetX="8.50394"
				v:shadowOffsetY="-8.50394"/>
		<v:layer v:name="连接线" v:index="0"/>
		<v:layer v:name="流程图" v:index="1"/>
		<g id="shape193-1" v:mID="193" v:groupContext="shape" transform="translate(91.9858,-22.7992) rotate(15)">
			<title>工作表.193</title>
			<path d="M-0 120.71 A19.9995 7.08662 0 0 1 20 127.8 A19.9995 7.08662 -180 0 0 40 134.88" class="st1"/>
		</g>
		<g id="group194-7" transform="translate(29.8912,-49.2825)" v:mID="194" v:groupContext="group">
			<title>工作表.194</title>
			<g id="shape176-8" v:mID="176" v:groupContext="shape" v:layerMember="0;1" transform="translate(6.96513,-22.6772)">
				<title>页面内引用</title>
				<v:userDefs>
					<v:ud v:nameU="visVersion" v:prompt="" v:val="VT0(15):26"/>
				</v:userDefs>
				<path d="M0 129.21 A3.48256 5.66929 0 1 1 6.97 129.21 A3.48256 5.66929 0 1 1 -0 129.21 Z" class="st2"/>
			</g>
			<g id="shape177-10" v:mID="177" v:groupContext="shape" v:layerMember="0;1">
				<title>页面内引用.177</title>
				<v:userDefs>
					<v:ud v:nameU="visVersion" v:prompt="" v:val="VT0(15):26"/>
				</v:userDefs>
				<path d="M0 129.21 A3.48256 5.66929 0 1 1 6.97 129.21 A3.48256 5.66929 0 1 1 -0 129.21 Z" class="st2"/>
			</g>
			<g id="shape178-12" v:mID="178" v:groupContext="shape" v:layerMember="0;1" transform="translate(13.9303,2.84217E-014)">
				<title>页面内引用.178</title>
				<v:userDefs>
					<v:ud v:nameU="visVersion" v:prompt="" v:val="VT0(15):26"/>
				</v:userDefs>
				<path d="M0 129.21 A3.48256 5.66929 0 1 1 6.97 129.21 A3.48256 5.66929 0 1 1 -0 129.21 Z" class="st2"/>
			</g>
			<g id="shape179-14" v:mID="179" v:groupContext="shape" v:layerMember="0" transform="translate(14.0517,-24.0945)">
				<title>动态连接线.179</title>
				<path d="M-5.42 139.26 L-5.61 139.56 L-8.56 144.37" class="st3"/>
			</g>
			<g id="shape180-23" v:mID="180" v:groupContext="shape" v:layerMember="0" transform="translate(6.84364,-24.0945)">
				<title>动态连接线.180</title>
				<path d="M5.42 139.26 L5.61 139.56 L8.56 144.37" class="st3"/>
			</g>
			<g id="shape181-30" v:mID="181" v:groupContext="shape" v:layerMember="0;1" transform="translate(34.8256,-22.6772)">
				<title>页面内引用.181</title>
				<v:userDefs>
					<v:ud v:nameU="visVersion" v:prompt="" v:val="VT0(15):26"/>
				</v:userDefs>
				<path d="M0 129.21 A3.48256 5.66929 0 1 1 6.97 129.21 A3.48256 5.66929 0 1 1 -0 129.21 Z" class="st2"/>
			</g>
			<g id="shape182-32" v:mID="182" v:groupContext="shape" v:layerMember="0;1" transform="translate(27.8605,2.84217E-014)">
				<title>页面内引用.182</title>
				<v:userDefs>
					<v:ud v:nameU="visVersion" v:prompt="" v:val="VT0(15):26"/>
				</v:userDefs>
				<path d="M0 129.21 A3.48256 5.66929 0 1 1 6.97 129.21 A3.48256 5.66929 0 1 1 -0 129.21 Z" class="st2"/>
			</g>
			<g id="shape183-34" v:mID="183" v:groupContext="shape" v:layerMember="0;1" transform="translate(41.7908,2.84217E-014)">
				<title>页面内引用.183</title>
				<v:userDefs>
					<v:ud v:nameU="visVersion" v:prompt="" v:val="VT0(15):26"/>
				</v:userDefs>
				<path d="M0 129.21 A3.48256 5.66929 0 1 1 6.97 129.21 A3.48256 5.66929 0 1 1 -0 129.21 Z" class="st2"/>
			</g>
			<g id="shape184-36" v:mID="184" v:groupContext="shape" v:layerMember="0" transform="translate(41.9123,-24.0945)">
				<title>动态连接线.184</title>
				<path d="M-5.42 139.26 L-5.61 139.56 L-8.56 144.37" class="st3"/>
			</g>
			<g id="shape185-43" v:mID="185" v:groupContext="shape" v:layerMember="0" transform="translate(34.7042,-24.0945)">
				<title>动态连接线.185</title>
				<path d="M5.42 139.26 L5.61 139.56 L8.56 144.37" class="st3"/>
			</g>
			<g id="shape186-50" v:mID="186" v:groupContext="shape" v:layerMember="0;1" transform="translate(20.8954,-45.3543)">
				<title>页面内引用.186</title>
				<v:userDefs>
					<v:ud v:nameU="visVersion" v:prompt="" v:val="VT0(15):26"/>
				</v:userDefs>
				<path d="M0 129.21 A3.48256 5.66929 0 1 1 6.97 129.21 A3.48256 5.66929 0 1 1 -0 129.21 Z" class="st2"/>
			</g>
			<g id="shape187-52" v:mID="187" v:groupContext="shape" v:layerMember="0" transform="translate(24.4994,-46.7717)">
				<title>动态连接线.187</title>
				<path d="M-2.81 138.49 L-3.09 138.72 L-11.08 145.22" class="st3"/>
			</g>
			<g id="shape188-59" v:mID="188" v:groupContext="shape" v:layerMember="0" transform="translate(38.4297,-32.5984)">
				<title>动态连接线.188</title>
				<path d="M-2.81 131.27 L-3.09 131.05 L-11.08 124.55" class="st3"/>
			</g>
		</g>
		<g id="shape190-66" v:mID="190" v:groupContext="shape" transform="translate(34.91,-21.1703) rotate(15)">
			<title>工作表.190</title>
			<ellipse cx="39.5615" cy="78.772" rx="39.5615" ry="56.11" class="st5"/>
		</g>
		<g id="shape195-70" v:mID="195" v:groupContext="shape" transform="translate(72.1573,-19.6536)">
			<title>工作表.195</title>
			<desc>mar</desc>
			<v:textBlock v:margins="rect(4,4,4,4)" v:tabSpace="42.5197"/>
			<v:textRect cx="99.2126" cy="106.536" width="198.43" height="56.6929"/>
			<rect x="0" y="78.1891" width="198.425" height="56.6929" class="st6"/>
			<text x="25.83" y="130.54" class="st7" v:langID="2052"><v:paragraph v:horizAlign="1"/><v:tabList/><tspan class="st8">mar</tspan></text>		</g>
	</g>
</svg>
